REM DIRINDEX 1\5,1\2\6,1\2\7,1\3\8,1\3\9,1\3\10,1\3\11,1\4\12,1\4\13,1\4\14
REM DIRNAME folder01,folder02,folder03,folder04,folder05,folder06,folder07,folder08,folder09,folder10,folder11,folder12,folder13,folder14
TITLE ""
FILE "4Q_t_085-101.mp3" MP3
  TRACK 01 AUDIO
    TITLE "6:cjc042_1150"
    INDEX 01 00:00:00
  TRACK 02 AUDIO
    TITLE "0:"
    INDEX 01 00:00:60
  TRACK 03 AUDIO
    TITLE "7:cjc042_1151"
    INDEX 01 00:01:32
  TRACK 04 AUDIO
    TITLE "0:"
    INDEX 01 00:03:45
  TRACK 05 AUDIO
    TITLE "6:cjc042_1152"
    INDEX 01 00:04:17
  TRACK 06 AUDIO
    TITLE "0:"
    INDEX 01 00:05:16
  TRACK 07 AUDIO
    TITLE "7:cjc042_1153"
    INDEX 01 00:05:67
  TRACK 08 AUDIO
    TITLE "0:"
    INDEX 01 00:07:54
  TRACK 09 AUDIO
    TITLE "6:cjc042_1154"
    INDEX 01 00:08:26
  TRACK 10 AUDIO
    TITLE "0:"
    INDEX 01 00:09:40
  TRACK 11 AUDIO
    TITLE "7:cjc042_1155"
    INDEX 01 00:10:16
  TRACK 12 AUDIO
    TITLE "0:"
    INDEX 01 00:11:17
  TRACK 13 AUDIO
    TITLE "6:cjc042_1156"
    INDEX 01 00:11:64
  TRACK 14 AUDIO
    TITLE "0:"
    INDEX 01 00:13:08
  TRACK 15 AUDIO
    TITLE "7:cjc042_1157"
    INDEX 01 00:13:53
  TRACK 16 AUDIO
    TITLE "0:"
    INDEX 01 00:15:40
  TRACK 17 AUDIO
    TITLE "6:cjc042_1158"
    INDEX 01 00:16:18
  TRACK 18 AUDIO
    TITLE "0:"
    INDEX 01 00:17:61
  TRACK 19 AUDIO
    TITLE "7:cjc042_1159"
    INDEX 01 00:18:33
  TRACK 20 AUDIO
    TITLE "0:"
    INDEX 01 00:20:16
  TRACK 21 AUDIO
    TITLE "6:cjc042_1160"
    INDEX 01 00:20:59
  TRACK 22 AUDIO
    TITLE "0:"
    INDEX 01 00:22:03
  TRACK 23 AUDIO
    TITLE "7:cjc042_1161"
    INDEX 01 00:22:50
  TRACK 24 AUDIO
    TITLE "0:"
    INDEX 01 00:23:44
  TRACK 25 AUDIO
    TITLE "6:cjc042_1162"
    INDEX 01 00:24:14
  TRACK 26 AUDIO
    TITLE "0:"
    INDEX 01 00:25:23
  TRACK 27 AUDIO
    TITLE "7:cjc042_1163"
    INDEX 01 00:25:70
  TRACK 28 AUDIO
    TITLE "0:"
    INDEX 01 00:26:67
  TRACK 29 AUDIO
    TITLE "6:cjc042_1164"
    INDEX 01 00:27:41
  TRACK 30 AUDIO
    TITLE "0:"
    INDEX 01 00:28:51
  TRACK 31 AUDIO
    TITLE "7:cjc042_1165"
    INDEX 01 00:29:23
  TRACK 32 AUDIO
    TITLE "0:"
    INDEX 01 00:31:29
  TRACK 33 AUDIO
    TITLE "6:cjc042_1166"
    INDEX 01 00:32:00
  TRACK 34 AUDIO
    TITLE "0:"
    INDEX 01 00:33:22
  TRACK 35 AUDIO
    TITLE "7:cjc042_1167"
    INDEX 01 00:33:64
  TRACK 36 AUDIO
    TITLE "0:"
    INDEX 01 00:35:04
  TRACK 37 AUDIO
    TITLE "6:cjc042_1168"
    INDEX 01 00:35:49
  TRACK 38 AUDIO
    TITLE "0:"
    INDEX 01 00:36:60
  TRACK 39 AUDIO
    TITLE "7:cjc042_1169"
    INDEX 01 00:37:30
  TRACK 40 AUDIO
    TITLE "0:"
    INDEX 01 00:38:73
  TRACK 41 AUDIO
    TITLE "6:cjc042_1170"
    INDEX 01 00:39:47
  TRACK 42 AUDIO
    TITLE "0:"
    INDEX 01 00:40:73
  TRACK 43 AUDIO
    TITLE "7:cjc042_1171"
    INDEX 01 00:41:45
  TRACK 44 AUDIO
    TITLE "0:"
    INDEX 01 00:44:01
  TRACK 45 AUDIO
    TITLE "6:cjc042_1172"
    INDEX 01 00:44:50
  TRACK 46 AUDIO
    TITLE "0:"
    INDEX 01 00:45:63
  TRACK 47 AUDIO
    TITLE "7:cjc042_1173"
    INDEX 01 00:46:37
  TRACK 48 AUDIO
    TITLE "0:"
    INDEX 01 00:47:52
  TRACK 49 AUDIO
    TITLE "6:cjc042_1174"
    INDEX 01 00:48:22
  TRACK 50 AUDIO
    TITLE "0:"
    INDEX 01 00:49:33
  TRACK 51 AUDIO
    TITLE "7:cjc042_1175"
    INDEX 01 00:50:13
  TRACK 52 AUDIO
    TITLE "0:"
    INDEX 01 00:52:12
  TRACK 53 AUDIO
    TITLE "6:cjc042_1176"
    INDEX 01 00:52:61
  TRACK 54 AUDIO
    TITLE "0:"
    INDEX 01 00:54:23
  TRACK 55 AUDIO
    TITLE "7:cjc042_1177"
    INDEX 01 00:54:74
  TRACK 56 AUDIO
    TITLE "0:"
    INDEX 01 00:58:60
  TRACK 57 AUDIO
    TITLE "6:cjc042_1178"
    INDEX 01 00:59:30
  TRACK 58 AUDIO
    TITLE "0:"
    INDEX 01 01:00:41
  TRACK 59 AUDIO
    TITLE "7:cjc042_1179"
    INDEX 01 01:01:15
  TRACK 60 AUDIO
    TITLE "0:"
    INDEX 01 01:03:02
  TRACK 61 AUDIO
    TITLE "6:cjc042_1180"
    INDEX 01 01:03:45
  TRACK 62 AUDIO
    TITLE "0:"
    INDEX 01 01:04:56
  TRACK 63 AUDIO
    TITLE "7:cjc042_1181"
    INDEX 01 01:05:32
  TRACK 64 AUDIO
    TITLE "0:"
    INDEX 01 01:09:16
  TRACK 65 AUDIO
    TITLE "6:cjc042_1182"
    INDEX 01 01:09:61
  TRACK 66 AUDIO
    TITLE "0:"
    INDEX 01 01:10:73
  TRACK 67 AUDIO
    TITLE "7:cjc042_1183"
    INDEX 01 01:11:45
  TRACK 68 AUDIO
    TITLE "0:"
    INDEX 01 01:12:38
